<?xml version="1.0" encoding="UTF-8" standalone="no"?>
<!-- Created with Inkscape (http://www.inkscape.org/) -->

<svg
   width="3550.7786"
   height="549.05084"
   viewBox="0 0 939.4768 145.2697"
   version="1.1"
   id="svg1"
   inkscape:version="1.3 (0e150ed, 2023-07-21)"
   sodipodi:docname="Logo_Inkscape.svg"
   xmlns:inkscape="http://www.inkscape.org/namespaces/inkscape"
   xmlns:sodipodi="http://sodipodi.sourceforge.net/DTD/sodipodi-0.dtd"
   xmlns="http://www.w3.org/2000/svg"
   xmlns:svg="http://www.w3.org/2000/svg">
  <sodipodi:namedview
     id="namedview1"
     pagecolor="#ffffff"
     bordercolor="#000000"
     borderopacity="0.25"
     inkscape:showpageshadow="2"
     inkscape:pageopacity="0.0"
     inkscape:pagecheckerboard="0"
     inkscape:deskcolor="#d1d1d1"
     inkscape:document-units="mm"
     inkscape:zoom="0.25358366"
     inkscape:cx="1340.7804"
     inkscape:cy="343.08204"
     inkscape:window-width="1800"
     inkscape:window-height="1097"
     inkscape:window-x="0"
     inkscape:window-y="44"
     inkscape:window-maximized="1"
     inkscape:current-layer="layer4"
     showgrid="false"
     showguides="false">
    <inkscape:grid
       id="grid19"
       units="mm"
       originx="-125.10928"
       originy="-285.06842"
       spacingx="0.99999998"
       spacingy="1"
       empcolor="#0099e5"
       empopacity="0.30196078"
       color="#0099e5"
       opacity="0.14901961"
       empspacing="5"
       dotted="false"
       gridanglex="30"
       gridanglez="30"
       visible="false" />
  </sodipodi:namedview>
  <defs
     id="defs1">
    <rect
       x="419.01654"
       y="872.7702"
       width="240.98878"
       height="141.11955"
       id="rect50" />
    <rect
       x="509.11597"
       y="199.73846"
       width="77.07299"
       height="75.987457"
       id="rect49" />
    <rect
       x="524.63837"
       y="853.22443"
       width="194.22003"
       height="70.236801"
       id="rect40" />
    <rect
       x="647.40002"
       y="743.28857"
       width="75.122833"
       height="65.350761"
       id="rect39" />
    <rect
       x="668.77649"
       y="757.33594"
       width="70.236801"
       height="74.512085"
       id="rect38" />
    <rect
       x="48.249626"
       y="404.93042"
       width="53.135666"
       height="72.069061"
       id="rect37" />
    <rect
       x="55.578686"
       y="496.54364"
       width="51.303398"
       height="48.249626"
       id="rect36" />
    <rect
       x="43.974342"
       y="685.87762"
       width="61.686234"
       height="42.142078"
       id="rect34" />
    <rect
       x="657.7829"
       y="335.30438"
       width="72.069061"
       height="64.740005"
       id="rect33" />
    <rect
       x="656.74463"
       y="330.97845"
       width="59.940979"
       height="69.496788"
       id="rect32" />
    <rect
       x="664.56305"
       y="320.55392"
       width="92.083244"
       height="89.477112"
       id="rect31" />
    <rect
       x="674.98755"
       y="285.80554"
       width="60.809689"
       height="60.809689"
       id="rect30" />
    <rect
       x="666.30042"
       y="694.9679"
       width="60.809689"
       height="91.214531"
       id="rect29" />
    <rect
       x="690.62433"
       y="537.73138"
       width="32.142265"
       height="73.84034"
       id="rect28" />
    <rect
       x="646.32013"
       y="300.57361"
       width="67.759369"
       height="66.02195"
       id="rect26" />
    <rect
       x="547.28717"
       y="239.76392"
       width="47.779041"
       height="68.628075"
       id="rect25" />
    <rect
       x="344.00909"
       y="209.35907"
       width="78.183884"
       height="52.991299"
       id="rect24" />
    <rect
       x="204.1468"
       y="233.68295"
       width="83.396141"
       height="68.628075"
       id="rect23" />
    <rect
       x="529.91302"
       y="236.28908"
       width="112.06357"
       height="79.921303"
       id="rect22" />
    <rect
       x="137.0549"
       y="55.494625"
       width="50.449657"
       height="73.992828"
       id="rect14" />
    <rect
       x="612.96332"
       y="596.98761"
       width="104.26263"
       height="89.127731"
       id="rect13" />
    <rect
       x="681.91119"
       y="463.29602"
       width="70.629524"
       height="108.46676"
       id="rect12" />
    <rect
       x="698.72778"
       y="306.06125"
       width="56.335449"
       height="113.51173"
       id="rect11" />
    <rect
       x="658.36804"
       y="152.1898"
       width="68.10704"
       height="91.650215"
       id="rect10" />
    <rect
       x="574.28528"
       y="60.539589"
       width="95.013519"
       height="69.788696"
       id="rect9" />
    <rect
       x="581.85272"
       y="47.927174"
       width="169.84718"
       height="100.89932"
       id="rect8" />
    <rect
       x="549.90125"
       y="31.110622"
       width="158.07559"
       height="84.082764"
       id="rect6" />
    <rect
       x="524.63837"
       y="853.22443"
       width="194.22003"
       height="70.236801"
       id="rect40-2" />
    <rect
       x="524.63837"
       y="853.22443"
       width="194.22003"
       height="70.236801"
       id="rect40-2-6" />
    <rect
       x="524.63837"
       y="853.22443"
       width="194.22003"
       height="70.236801"
       id="rect40-2-6-6" />
    <rect
       x="524.63837"
       y="853.22443"
       width="194.22003"
       height="70.236801"
       id="rect40-5" />
    <rect
       x="524.63837"
       y="853.22443"
       width="194.22003"
       height="70.236801"
       id="rect40-7" />
    <rect
       x="647.40002"
       y="743.28857"
       width="139.25208"
       height="72.679817"
       id="rect39-5" />
    <rect
       x="647.40002"
       y="743.28857"
       width="139.25208"
       height="72.679817"
       id="rect39-5-4" />
    <rect
       x="647.40002"
       y="743.28857"
       width="139.25208"
       height="72.679817"
       id="rect39-5-4-5" />
    <rect
       x="509.11597"
       y="199.73846"
       width="77.07299"
       height="75.987457"
       id="rect49-5" />
    <rect
       x="419.01654"
       y="872.7702"
       width="240.98878"
       height="141.11955"
       id="rect50-7" />
    <rect
       x="419.01654"
       y="872.7702"
       width="240.98878"
       height="141.11955"
       id="rect50-7-9" />
    <rect
       x="509.11597"
       y="199.73846"
       width="77.07299"
       height="75.987457"
       id="rect49-5-3" />
    <rect
       x="509.11597"
       y="199.73846"
       width="77.07299"
       height="75.987457"
       id="rect49-5-3-1" />
  </defs>
  <g
     inkscape:groupmode="layer"
     id="layer1"
     inkscape:label="Staff">
    <rect
       style="display:none;fill:#ffffff;stroke:none;stroke-width:1;stroke-linecap:square;stroke-dasharray:none"
       id="rect1"
       width="761.72394"
       height="55.685596"
       x="176.37791"
       y="60.437878" />
    <g
       id="g40"
       transform="matrix(1.374953,0,0,1.374953,175.00296,-35.121357)"
       style="stroke-width:0.182809">
      <g
         class="vf-stave"
         id="vf-auto1118"
         stroke-width="0.239362"
         fill="#999999"
         stroke="#999999"
         style="stroke-width:0.727298;stroke-dasharray:none">
        <path
           fill="none"
           d="M 0,70 H 555"
           id="path1-7"
           style="stroke:#4d4d4d;stroke-width:0.727298;stroke-dasharray:none" />
        <path
           fill="none"
           d="M 0,80 H 555"
           id="path2"
           style="stroke:#4d4d4d;stroke-width:0.727298;stroke-dasharray:none" />
        <path
           fill="none"
           d="M 0,90 H 555"
           id="path3"
           style="stroke:#4d4d4d;stroke-width:0.727298;stroke-dasharray:none" />
        <path
           fill="none"
           d="M 0,100 H 555"
           id="path4"
           style="stroke:#4d4d4d;stroke-width:0.727298;stroke-dasharray:none" />
        <path
           fill="none"
           d="M 0,110 H 555"
           id="path5"
           style="stroke:#4d4d4d;stroke-width:0.727298;stroke-dasharray:none" />
      </g>
      <g
         class="vf-stavebarline"
         id="vf-auto1119"
         style="stroke-width:0.182809">
        <rect
           y="69.5"
           width="1"
           height="41"
           stroke="none"
           id="rect5"
           x="0"
           style="stroke-width:0.182809" />
      </g>
      <g
         class="vf-stavebarline"
         id="vf-auto1120"
         style="stroke-width:0.182809">
        <rect
           x="555"
           y="69.5"
           width="1"
           height="41"
           stroke="none"
           id="rect6-0"
           style="stroke-width:0.182809" />
      </g>
      <g
         class="vf-clef"
         id="vf-auto1121"
         style="stroke-width:0.182809">
        <path
           stroke="none"
           d="m 20.191,83.208 c -0.056,-0.477 0,-0.505 0.253,-0.758 4.38,-4.072 7.694,-9.21 7.694,-15.416 0,-3.51 -0.983,-6.992 -2.64,-9.407 -0.617,-0.898 -1.656,-2.021 -2.106,-2.021 -0.561,0 -1.825,1.038 -2.611,1.937 -3.005,3.313 -3.987,8.368 -3.987,12.58 0,2.331 0.308,4.97 0.589,6.627 0.085,0.477 0.113,0.561 -0.365,0.983 C 11.178,82.534 5,88.319 5,96.49 c 0,7.02 4.802,13.703 14.714,13.703 0.927,0 1.994,-0.084 2.808,-0.253 0.421,-0.084 0.505,-0.112 0.59,0.365 0.477,2.724 1.095,6.234 1.095,8.144 0,5.981 -4.044,6.711 -6.431,6.711 -2.19,0 -3.229,-0.646 -3.229,-1.18 0,-0.28 0.365,-0.393 1.292,-0.702 1.263,-0.365 2.696,-1.432 2.696,-3.79 0,-2.219 -1.404,-4.128 -3.875,-4.128 -2.696,0 -4.325,2.162 -4.325,4.661 0,2.611 1.573,6.599 7.694,6.599 2.696,0 7.947,-1.236 7.947,-8.087 0,-2.331 -0.73,-6.15 -1.152,-8.677 -0.084,-0.477 -0.056,-0.421 0.506,-0.674 4.1,-1.628 6.795,-5.054 6.795,-9.631 0,-5.167 -3.791,-9.744 -9.743,-9.744 -1.039,0 -1.039,0 -1.18,-0.73 m 2.808,-27.21 c 1.32,0 2.415,1.095 2.415,3.314 0,4.493 -3.847,8.143 -7.02,10.923 -0.281,0.253 -0.449,0.196 -0.533,-0.337 -0.169,-1.039 -0.253,-2.415 -0.253,-3.707 0,-6.318 2.92,-10.193 5.391,-10.193 m -4.408,27.547 c 0.112,0.758 0.112,0.73 -0.618,0.955 -3.538,1.207 -5.869,4.408 -5.869,7.862 0,3.622 1.91,6.206 4.661,7.16 0.337,0.113 0.815,0.225 1.096,0.225 0.308,0 0.477,-0.197 0.477,-0.449 0,-0.281 -0.309,-0.393 -0.59,-0.506 -1.713,-0.73 -2.92,-2.471 -2.92,-4.324 0,-2.331 1.572,-4.044 4.043,-4.746 0.646,-0.168 0.73,-0.112 0.815,0.337 l 2.021,12.047 c 0.085,0.449 0.029,0.449 -0.561,0.561 -0.646,0.113 -1.46,0.197 -2.275,0.197 -7.076,0 -11.653,-3.931 -11.653,-9.547 0,-2.387 0.421,-5.588 3.763,-9.379 2.443,-2.696 4.296,-4.212 6.178,-5.728 0.421,-0.337 0.505,-0.281 0.589,0.14 m 3.623,11.625 c -0.085,-0.505 -0.029,-0.618 0.449,-0.561 3.285,0.28 5.981,3.032 5.981,6.57 0,2.556 -1.545,4.605 -3.791,5.757 -0.477,0.224 -0.562,0.224 -0.646,-0.253"
           id="path6"
           style="stroke-width:0.182809" />
      </g>
      <g
         class="vf-stavenote"
         id="vf-auto1045"
         style="stroke-width:0.182809">
        <path
           stroke-width="0.255932"
           fill="none"
           stroke="#444444"
           d="M 43.971,120 H 61.905"
           id="path7" />
        <g
           class="vf-stem"
           id="vf-auto1046"
           pointer-events="bounding-box"
           style="stroke-width:0.182809">
          <path
             stroke-width="0.359044"
             fill="none"
             d="M 58.155,118 V 65"
             id="path8"
             style="stroke:#000000;stroke-width:1.03641;stroke-dasharray:none" />
        </g>
        <g
           class="vf-notehead"
           id="vf-auto1050"
           pointer-events="bounding-box"
           style="stroke-width:0.182809">
          <path
             stroke="none"
             d="m 50.902,125.054 c 3.594,0 8.003,-3.313 8.003,-6.739 0,-2.078 -1.629,-3.369 -3.932,-3.369 -4.436,0 -8.002,3.285 -8.002,6.739 0,2.106 1.74,3.369 3.931,3.369"
             id="path9"
             style="stroke-width:0.182809" />
        </g>
        <g
           class="vf-notehead"
           id="vf-auto1051"
           pointer-events="bounding-box"
           style="stroke-width:0.182809">
          <path
             stroke="none"
             d="m 50.902,115.054 c 3.594,0 8.003,-3.313 8.003,-6.739 0,-2.078 -1.629,-3.369 -3.932,-3.369 -4.436,0 -8.002,3.285 -8.002,6.739 0,2.106 1.74,3.369 3.931,3.369"
             id="path10"
             style="stroke-width:0.182809" />
        </g>
        <g
           class="vf-notehead"
           id="vf-auto1052"
           pointer-events="bounding-box"
           style="stroke-width:0.182809">
          <path
             stroke="none"
             d="m 50.902,105.054 c 3.594,0 8.003,-3.313 8.003,-6.739 0,-2.078 -1.629,-3.369 -3.932,-3.369 -4.436,0 -8.002,3.285 -8.002,6.739 0,2.106 1.74,3.369 3.931,3.369"
             id="path11"
             style="stroke-width:0.182809" />
        </g>
      </g>
      <g
         class="vf-stavenote"
         id="vf-auto1054"
         style="stroke-width:0.182809">
        <g
           class="vf-stem"
           id="vf-auto1055"
           pointer-events="bounding-box"
           style="stroke-width:0.182809">
          <path
             stroke-width="0.359044"
             fill="none"
             d="M 118.405,113 V 60"
             id="path12"
             style="stroke:#000000;stroke-width:1.03641;stroke-dasharray:none" />
        </g>
        <g
           class="vf-notehead"
           id="vf-auto1059"
           pointer-events="bounding-box"
           style="stroke-width:0.182809">
          <path
             stroke="none"
             d="m 111.152,120.054 c 3.594,0 8.003,-3.313 8.003,-6.739 0,-2.078 -1.629,-3.369 -3.932,-3.369 -4.436,0 -8.002,3.285 -8.002,6.739 0,2.106 1.74,3.369 3.931,3.369"
             id="path13"
             style="stroke-width:0.182809" />
        </g>
        <g
           class="vf-notehead"
           id="vf-auto1060"
           pointer-events="bounding-box"
           style="stroke-width:0.182809">
          <path
             stroke="none"
             d="m 111.152,110.054 c 3.594,0 8.003,-3.313 8.003,-6.739 0,-2.078 -1.629,-3.369 -3.932,-3.369 -4.436,0 -8.002,3.285 -8.002,6.739 0,2.106 1.74,3.369 3.931,3.369"
             id="path14"
             style="stroke-width:0.182809" />
        </g>
        <g
           class="vf-notehead"
           id="vf-auto1061"
           pointer-events="bounding-box"
           style="stroke-width:0.182809">
          <path
             stroke="none"
             d="m 111.152,100.054 c 3.594,0 8.003,-3.313 8.003,-6.739 0,-2.078 -1.629,-3.369 -3.932,-3.369 -4.436,0 -8.002,3.285 -8.002,6.739 0,2.106 1.74,3.369 3.931,3.369"
             id="path15"
             style="stroke-width:0.182809" />
        </g>
      </g>
      <g
         class="vf-stavenote"
         id="vf-auto1063"
         style="stroke-width:0.182809">
        <g
           class="vf-stem"
           id="vf-auto1064"
           pointer-events="bounding-box"
           style="stroke-width:0.182809">
          <path
             stroke-width="0.359044"
             fill="none"
             d="M 178.655,108 V 55"
             id="path16"
             style="stroke:#000000;stroke-width:1.03641;stroke-dasharray:none" />
        </g>
        <g
           class="vf-notehead"
           id="vf-auto1068"
           pointer-events="bounding-box"
           style="stroke-width:0.182809">
          <path
             stroke="none"
             d="m 171.402,115.054 c 3.594,0 8.003,-3.313 8.003,-6.739 0,-2.078 -1.629,-3.369 -3.932,-3.369 -4.436,0 -8.002,3.285 -8.002,6.739 0,2.106 1.74,3.369 3.931,3.369"
             id="path17"
             style="stroke-width:0.182809" />
        </g>
        <g
           class="vf-notehead"
           id="vf-auto1069"
           pointer-events="bounding-box"
           style="stroke-width:0.182809">
          <path
             stroke="none"
             d="m 171.402,105.054 c 3.594,0 8.003,-3.313 8.003,-6.739 0,-2.078 -1.629,-3.369 -3.932,-3.369 -4.436,0 -8.002,3.285 -8.002,6.739 0,2.106 1.74,3.369 3.931,3.369"
             id="path18"
             style="stroke-width:0.182809" />
        </g>
        <g
           class="vf-notehead"
           id="vf-auto1070"
           pointer-events="bounding-box"
           style="stroke-width:0.182809">
          <path
             stroke="none"
             d="m 171.402,95.054 c 3.594,0 8.003,-3.313 8.003,-6.739 0,-2.078 -1.629,-3.369 -3.932,-3.369 -4.436,0 -8.002,3.285 -8.002,6.739 0,2.106 1.74,3.369 3.931,3.369"
             id="path19"
             style="stroke-width:0.182809" />
        </g>
      </g>
      <g
         class="vf-stavenote"
         id="vf-auto1072"
         style="stroke-width:0.182809">
        <g
           class="vf-stem"
           id="vf-auto1073"
           pointer-events="bounding-box"
           style="stroke-width:0.182809">
          <path
             stroke-width="0.359044"
             fill="none"
             d="M 238.905,103 V 50"
             id="path20"
             style="stroke:#000000;stroke-width:1.03641;stroke-dasharray:none" />
        </g>
        <g
           class="vf-notehead"
           id="vf-auto1077"
           pointer-events="bounding-box"
           style="stroke-width:0.182809">
          <path
             stroke="none"
             d="m 231.652,110.054 c 3.594,0 8.003,-3.313 8.003,-6.739 0,-2.078 -1.629,-3.369 -3.932,-3.369 -4.436,0 -8.002,3.285 -8.002,6.739 0,2.106 1.74,3.369 3.931,3.369"
             id="path21"
             style="stroke-width:0.182809" />
        </g>
        <g
           class="vf-notehead"
           id="vf-auto1078"
           pointer-events="bounding-box"
           style="stroke-width:0.182809">
          <path
             stroke="none"
             d="m 231.652,100.054 c 3.594,0 8.003,-3.313 8.003,-6.739 0,-2.078 -1.629,-3.369 -3.932,-3.369 -4.436,0 -8.002,3.285 -8.002,6.739 0,2.106 1.74,3.369 3.931,3.369"
             id="path22"
             style="stroke-width:0.182809" />
        </g>
        <g
           class="vf-notehead"
           id="vf-auto1079"
           pointer-events="bounding-box"
           style="stroke-width:0.182809">
          <path
             stroke="none"
             d="m 231.652,90.054 c 3.594,0 8.003,-3.313 8.003,-6.739 0,-2.078 -1.629,-3.369 -3.932,-3.369 -4.436,0 -8.002,3.285 -8.002,6.739 0,2.106 1.74,3.369 3.931,3.369"
             id="path23"
             style="stroke-width:0.182809" />
        </g>
      </g>
      <g
         class="vf-stavenote"
         id="vf-auto1081"
         style="stroke-width:0.182809">
        <g
           class="vf-stem"
           id="vf-auto1082"
           pointer-events="bounding-box"
           style="stroke-width:0.182809">
          <path
             stroke-width="0.359044"
             fill="none"
             d="M 299.155,98 V 45"
             id="path24"
             style="stroke:#000000;stroke-width:1.03641;stroke-dasharray:none" />
        </g>
        <g
           class="vf-notehead"
           id="vf-auto1086"
           pointer-events="bounding-box"
           style="stroke-width:0.182809">
          <path
             stroke="none"
             d="m 291.902,105.054 c 3.594,0 8.003,-3.313 8.003,-6.739 0,-2.078 -1.629,-3.369 -3.932,-3.369 -4.436,0 -8.002,3.285 -8.002,6.739 0,2.106 1.74,3.369 3.931,3.369"
             id="path25"
             style="stroke-width:0.182809" />
        </g>
        <g
           class="vf-notehead"
           id="vf-auto1087"
           pointer-events="bounding-box"
           style="stroke-width:0.182809">
          <path
             stroke="none"
             d="m 291.902,95.054 c 3.594,0 8.003,-3.313 8.003,-6.739 0,-2.078 -1.629,-3.369 -3.932,-3.369 -4.436,0 -8.002,3.285 -8.002,6.739 0,2.106 1.74,3.369 3.931,3.369"
             id="path26"
             style="stroke-width:0.182809" />
        </g>
        <g
           class="vf-notehead"
           id="vf-auto1088"
           pointer-events="bounding-box"
           style="stroke-width:0.182809">
          <path
             stroke="none"
             d="m 291.902,85.054 c 3.594,0 8.003,-3.313 8.003,-6.739 0,-2.078 -1.629,-3.369 -3.932,-3.369 -4.436,0 -8.002,3.285 -8.002,6.739 0,2.106 1.74,3.369 3.931,3.369"
             id="path27"
             style="stroke-width:0.182809" />
        </g>
      </g>
      <g
         class="vf-stavenote"
         id="vf-auto1090"
         style="stroke-width:0.182809">
        <g
           class="vf-stem"
           id="vf-auto1091"
           pointer-events="bounding-box"
           style="stroke-width:0.182809">
          <path
             stroke-width="0.359044"
             fill="none"
             d="M 359.405,93 V 40"
             id="path28"
             style="stroke:#000000;stroke-width:1.03641;stroke-dasharray:none" />
        </g>
        <g
           class="vf-notehead"
           id="vf-auto1095"
           pointer-events="bounding-box"
           style="stroke-width:0.182809">
          <path
             stroke="none"
             d="m 352.152,100.054 c 3.594,0 8.003,-3.313 8.003,-6.739 0,-2.078 -1.629,-3.369 -3.932,-3.369 -4.436,0 -8.002,3.285 -8.002,6.739 0,2.106 1.74,3.369 3.931,3.369"
             id="path29"
             style="stroke-width:0.182809" />
        </g>
        <g
           class="vf-notehead"
           id="vf-auto1096"
           pointer-events="bounding-box"
           style="stroke-width:0.182809">
          <path
             stroke="none"
             d="m 352.152,90.054 c 3.594,0 8.003,-3.313 8.003,-6.739 0,-2.078 -1.629,-3.369 -3.932,-3.369 -4.436,0 -8.002,3.285 -8.002,6.739 0,2.106 1.74,3.369 3.931,3.369"
             id="path30"
             style="stroke-width:0.182809" />
        </g>
        <g
           class="vf-notehead"
           id="vf-auto1097"
           pointer-events="bounding-box"
           style="stroke-width:0.182809">
          <path
             stroke="none"
             d="m 352.152,80.054 c 3.594,0 8.003,-3.313 8.003,-6.739 0,-2.078 -1.629,-3.369 -3.932,-3.369 -4.436,0 -8.002,3.285 -8.002,6.739 0,2.106 1.74,3.369 3.931,3.369"
             id="path31"
             style="stroke-width:0.182809" />
        </g>
      </g>
      <g
         class="vf-stavenote"
         id="vf-auto1099"
         style="stroke-width:0.182809">
        <g
           class="vf-stem"
           id="vf-auto1100"
           pointer-events="bounding-box"
           style="stroke-width:0.182809">
          <path
             stroke-width="0.359044"
             fill="none"
             d="M 419.655,88 V 35"
             id="path32"
             style="stroke:#000000;stroke-width:1.03641;stroke-dasharray:none" />
        </g>
        <g
           class="vf-notehead"
           id="vf-auto1104"
           pointer-events="bounding-box"
           style="stroke-width:0.182809">
          <path
             stroke="none"
             d="m 412.402,95.054 c 3.594,0 8.003,-3.313 8.003,-6.739 0,-2.078 -1.629,-3.369 -3.932,-3.369 -4.436,0 -8.002,3.285 -8.002,6.739 0,2.106 1.74,3.369 3.931,3.369"
             id="path33"
             style="stroke-width:0.182809" />
        </g>
        <g
           class="vf-notehead"
           id="vf-auto1105"
           pointer-events="bounding-box"
           style="stroke-width:0.182809">
          <path
             stroke="none"
             d="m 412.402,85.054 c 3.594,0 8.003,-3.313 8.003,-6.739 0,-2.078 -1.629,-3.369 -3.932,-3.369 -4.436,0 -8.002,3.285 -8.002,6.739 0,2.106 1.74,3.369 3.931,3.369"
             id="path35"
             style="stroke-width:0.182809" />
        </g>
        <g
           class="vf-notehead"
           id="vf-auto1106"
           pointer-events="bounding-box"
           style="stroke-width:0.182809">
          <path
             stroke="none"
             d="m 412.402,75.054 c 3.594,0 8.003,-3.313 8.003,-6.739 0,-2.078 -1.629,-3.369 -3.932,-3.369 -4.436,0 -8.002,3.285 -8.002,6.739 0,2.106 1.74,3.369 3.931,3.369"
             id="path36"
             style="stroke-width:0.182809" />
        </g>
      </g>
      <g
         class="vf-stavenote"
         id="vf-auto1109"
         style="stroke-width:0.182809">
        <g
           class="vf-stem"
           id="vf-auto1110"
           pointer-events="bounding-box"
           style="stroke-width:0.182809">
          <path
             stroke-width="0.359044"
             fill="none"
             d="M 479.905,83 V 30"
             id="path37"
             style="stroke:#000000;stroke-width:1.03641;stroke-dasharray:none" />
        </g>
        <g
           class="vf-notehead"
           id="vf-auto1114"
           pointer-events="bounding-box"
           style="stroke-width:0.182809">
          <path
             stroke="none"
             d="m 472.652,90.054 c 3.594,0 8.003,-3.313 8.003,-6.739 0,-2.078 -1.629,-3.369 -3.932,-3.369 -4.436,0 -8.002,3.285 -8.002,6.739 0,2.106 1.74,3.369 3.931,3.369"
             id="path38"
             style="stroke-width:0.182809" />
        </g>
        <g
           class="vf-notehead"
           id="vf-auto1115"
           pointer-events="bounding-box"
           style="stroke-width:0.182809">
          <path
             stroke="none"
             d="m 472.652,80.054 c 3.594,0 8.003,-3.313 8.003,-6.739 0,-2.078 -1.629,-3.369 -3.932,-3.369 -4.436,0 -8.002,3.285 -8.002,6.739 0,2.106 1.74,3.369 3.931,3.369"
             id="path39"
             style="stroke-width:0.182809" />
        </g>
        <g
           class="vf-notehead"
           id="vf-auto1116"
           pointer-events="bounding-box"
           style="stroke-width:0.182809">
          <path
             stroke="none"
             d="m 472.652,70.054 c 3.594,0 8.003,-3.313 8.003,-6.739 0,-2.078 -1.629,-3.369 -3.932,-3.369 -4.436,0 -8.002,3.285 -8.002,6.739 0,2.106 1.74,3.369 3.931,3.369"
             id="path40"
             style="stroke-width:0.182809" />
        </g>
      </g>
    </g>
  </g>
  <g
     inkscape:groupmode="layer"
     id="layer4"
     inkscape:label="Outlines"
     style="display:inline"
     transform="translate(-33.101831,-75.424354)">
    <ellipse
       style="display:none;fill:#ffffff;stroke:#000000;stroke-width:0.499999;stroke-linecap:square"
       id="path1"
       cx="105.13328"
       cy="148.44435"
       rx="41.00388"
       ry="41.221199" />
    <path
       id="Cell_DM"
       style="display:inline;fill:none;stroke:#000000;stroke-width:0.5;stroke-linecap:square;stroke-linejoin:miter;stroke-dasharray:none"
       d="M 156.00563,97.762362 143.2777,110.49026 c 6.64679,6.64682 11.41214,14.94083 13.89669,24.12799 l 17.46528,-4.58012 c -3.27147,-12.20835 -9.69781,-23.33957 -18.63403,-32.275784 z"
       sodipodi:nodetypes="ccccc"
       inkscape:transform-center-x="-53.864734"
       inkscape:transform-center-y="-32.483736"
       inkscape:label="D" />
    <path
       id="Cell_AM"
       style="display:inline;fill:none;stroke:#000000;stroke-width:0.5;stroke-linecap:square;stroke-linejoin:miter;stroke-dasharray:none"
       d="m 174.60036,129.99883 -17.38666,4.65872 c 2.43288,9.07971 2.41279,18.64521 -0.0291,27.8438 l 17.41544,4.76614 c 3.271,-12.20848 3.27124,-25.06157 3.5e-4,-37.26867 z"
       sodipodi:nodetypes="ccccc"
       inkscape:transform-center-x="-62.065291"
       inkscape:transform-center-y="-0.000636"
       inkscape:label="A" />
    <path
       id="Cell_EM"
       style="display:inline;fill:none;stroke:#000000;stroke-width:0.5;stroke-linecap:square;stroke-linejoin:miter;stroke-dasharray:none"
       d="m 174.58564,167.2138 -17.38665,-4.65876 c -2.43292,9.0797 -7.23307,17.35362 -13.9471,24.09889 l 12.69914,12.83532 c 8.93701,-8.93736 15.36376,-20.06834 18.63464,-32.27544 z"
       sodipodi:nodetypes="ccccc"
       inkscape:transform-center-x="-53.879779"
       inkscape:transform-center-y="32.443314"
       inkscape:label="E" />
    <path
       id="Cell_BM"
       style="display:inline;fill:none;stroke:#000000;stroke-width:0.5;stroke-linecap:square;stroke-linejoin:miter;stroke-dasharray:none"
       d="m 155.96541,199.43556 -12.7279,-12.72794 c -6.64682,6.6468 -14.94083,11.41214 -24.12799,13.89671 l 4.58012,17.46528 c 12.20836,-3.27147 23.33958,-9.69781 32.27579,-18.63403 z"
       sodipodi:nodetypes="ccccc"
       inkscape:transform-center-x="-32.483734"
       inkscape:transform-center-y="53.864739"
       inkscape:label="B" />
    <path
       id="Cell_F_M"
       style="display:inline;fill:none;stroke:#000000;stroke-width:0.5;stroke-linecap:square;stroke-linejoin:miter;stroke-dasharray:none"
       d="m 123.76824,217.991 -4.65872,-17.38667 c -9.07971,2.43289 -18.64521,2.41279 -27.8438,-0.0291 l -4.76614,17.41544 c 12.20848,3.271 25.06157,3.27124 37.26867,3.5e-4 z"
       sodipodi:nodetypes="ccccc"
       inkscape:transform-center-x="-0.000634"
       inkscape:transform-center-y="62.065286"
       inkscape:label="F#" />
    <path
       id="Cell_C_M"
       style="display:inline;fill:none;stroke:#000000;stroke-width:0.5;stroke-linecap:square;stroke-linejoin:miter;stroke-dasharray:none"
       d="m 86.606955,217.96189 4.658765,-17.38666 c -9.079705,-2.43291 -17.353621,-7.23307 -24.098888,-13.9471 l -12.835318,12.69914 c 8.937353,8.93701 20.068336,15.36376 32.275439,18.63464 z"
       sodipodi:nodetypes="ccccc"
       inkscape:transform-center-x="32.443312"
       inkscape:transform-center-y="53.879774"
       inkscape:label="C#" />
    <path
       id="Cell_AbM"
       style="display:inline;fill:none;stroke:#000000;stroke-width:0.5;stroke-linecap:square;stroke-linejoin:miter;stroke-dasharray:none"
       d="M 54.438895,199.35604 67.166832,186.62813 C 60.520034,179.98132 55.754692,171.6873 53.270135,162.50015 l -17.465282,4.58012 c 3.27147,12.20835 9.697809,23.33957 18.63403,32.27579 z"
       sodipodi:nodetypes="ccccc"
       inkscape:transform-center-x="53.864735"
       inkscape:transform-center-y="32.483739"
       inkscape:label="Ab" />
    <path
       id="Cell_EbM"
       style="display:inline;fill:none;stroke:#000000;stroke-width:0.5;stroke-linecap:square;stroke-linejoin:miter;stroke-dasharray:none"
       d="m 35.80488,167.08026 17.386666,-4.65873 c -2.43288,-9.0797 -2.41279,-18.64521 0.0291,-27.84379 L 35.805208,129.8116 c -3.270999,12.20848 -3.271236,25.06157 -3.55e-4,37.26867 z"
       sodipodi:nodetypes="ccccc"
       inkscape:transform-center-x="62.065287"
       inkscape:transform-center-y="0.000639"
       inkscape:label="Eb" />
    <path
       id="Cell_BbM"
       style="display:inline;fill:none;stroke:#000000;stroke-width:0.5;stroke-linecap:square;stroke-linejoin:miter;stroke-dasharray:none"
       d="m 35.808466,129.95272 17.38666,4.65876 c 2.43292,-9.0797 7.23307,-17.35362 13.9471,-24.09889 L 54.443086,97.677276 c -8.93701,8.937354 -15.36377,20.068334 -18.63465,32.275434 z"
       sodipodi:nodetypes="ccccc"
       inkscape:transform-center-x="53.879779"
       inkscape:transform-center-y="-32.443312"
       inkscape:label="Bb" />
    <path
       id="Cell_Gm"
       style="display:inline;fill:none;stroke:#000000;stroke-width:0.5;stroke-linecap:butt;stroke-linejoin:miter;stroke-dasharray:none"
       d="M 79.668665,123.1136 66.939837,110.56648 c -6.657829,6.71277 -11.457965,14.98668 -13.947087,24.09886 l 17.330453,4.6912 c 1.655202,-6.17742 4.888015,-11.81546 9.345511,-16.24291 z"
       sodipodi:nodetypes="ccccc"
       inkscape:transform-center-x="38.765768"
       inkscape:transform-center-y="-23.712508"
       inkscape:label="Gm" />
    <path
       id="Cell_Cm"
       style="display:inline;fill:none;stroke:#000000;stroke-width:0.5;stroke-linecap:butt;stroke-linejoin:miter;stroke-dasharray:none"
       d="m 70.295143,139.252 -17.297054,-4.50174 c -2.409448,9.14236 -2.429545,18.70787 -0.0291,27.84378 l 17.354194,-4.60251 C 68.667943,151.81411 68.648619,145.315 70.295174,139.252 Z"
       sodipodi:nodetypes="ccccc"
       inkscape:transform-center-x="44.345018"
       inkscape:transform-center-y="-0.001891"
       inkscape:label="Cm" />
    <path
       id="Cell_Fm"
       style="display:inline;fill:none;stroke:#000000;stroke-width:0.5;stroke-linecap:butt;stroke-linejoin:miter;stroke-dasharray:none"
       d="m 70.246612,157.91498 -17.230539,4.74993 c 2.484517,9.12223 7.249876,17.41625 13.896686,24.12797 l 12.727903,-12.663 C 75.118479,169.6077 71.85219,163.98897 70.246644,157.91496 Z"
       sodipodi:nodetypes="ccccc"
       inkscape:transform-center-x="38.768131"
       inkscape:transform-center-y="23.679879"
       inkscape:label="Fm" />
    <path
       id="Cell_A_m"
       style="display:inline;fill:none;stroke:#000000;stroke-width:0.5;stroke-linecap:butt;stroke-linejoin:miter;stroke-dasharray:none"
       d="M 79.536093,174.10188 66.988949,186.8307 c 6.71279,6.65782 14.986715,11.45798 24.09887,13.94709 l 4.691204,-17.33043 c -6.177422,-1.65523 -11.815477,-4.88805 -16.242912,-9.34551 z"
       sodipodi:nodetypes="ccccc"
       inkscape:transform-center-x="23.712514"
       inkscape:transform-center-y="38.765779"
       inkscape:label="A#m" />
    <path
       id="Cell_D_m"
       style="display:inline;fill:none;stroke:#000000;stroke-width:0.5;stroke-linecap:butt;stroke-linejoin:miter;stroke-dasharray:none"
       d="m 95.674449,183.47538 -4.501718,17.29705 c 9.142349,2.40946 18.707859,2.42955 27.843779,0.0291 l -4.60253,-17.35418 c -6.17742,1.65524 -12.67651,1.67456 -18.739528,0.028 z"
       sodipodi:nodetypes="ccccc"
       inkscape:transform-center-x="0.0018805"
       inkscape:transform-center-y="44.345016"
       inkscape:label="D#m" />
    <path
       id="Cell_G_m"
       style="display:inline;fill:none;stroke:#000000;stroke-width:0.5;stroke-linecap:butt;stroke-linejoin:miter;stroke-dasharray:none"
       d="m 114.35209,183.44436 4.74991,17.23055 c 9.12224,-2.48453 17.41625,-7.2499 24.12797,-13.89669 l -12.66298,-12.72791 c -4.52219,4.5222 -10.14092,7.78847 -16.21492,9.39402 z"
       sodipodi:nodetypes="ccccc"
       inkscape:transform-center-x="-23.679883"
       inkscape:transform-center-y="38.76814"
       inkscape:label="G#m" />
    <path
       id="Cell_F_m"
       style="display:inline;fill:none;stroke:#000000;stroke-width:0.5;stroke-linecap:butt;stroke-linejoin:miter;stroke-dasharray:none"
       d="m 139.74085,157.9315 17.29705,4.50171 c 2.40947,-9.14233 2.42954,-18.70784 0.0291,-27.84376 l -17.35419,4.60252 c 1.65525,6.1774 1.67456,12.67652 0.028,18.73954 z"
       sodipodi:nodetypes="ccccc"
       inkscape:transform-center-x="-44.345019"
       inkscape:transform-center-y="0.00188"
       inkscape:label="F#m" />
    <path
       id="Cell_C_m"
       style="display:inline;fill:none;stroke:#000000;stroke-width:0.5;stroke-linecap:butt;stroke-linejoin:miter;stroke-dasharray:none"
       d="m 130.39537,174.17443 12.72883,12.54712 c 6.65782,-6.71275 11.45796,-14.98669 13.94708,-24.09885 l -17.33043,-4.6912 c -1.65521,6.17741 -4.88805,11.81547 -9.34552,16.24292 z"
       sodipodi:nodetypes="ccccc"
       inkscape:transform-center-x="-38.765772"
       inkscape:transform-center-y="23.712505"
       inkscape:label="C#m" />
    <path
       id="Cell_Bm"
       style="display:inline;fill:#e06d1f;fill-opacity:1;stroke:#000000;stroke-width:1.5;stroke-linecap:butt;stroke-linejoin:miter;stroke-dasharray:none"
       d="m 139.83646,139.33938 17.23054,-4.74993 c -2.48451,-9.12223 -7.24988,-17.41624 -13.89668,-24.12796 l -12.72791,12.663 c 4.52219,4.52216 7.78847,10.1409 9.39402,16.21491 z"
       sodipodi:nodetypes="ccccc"
       inkscape:transform-center-x="-38.768132"
       inkscape:transform-center-y="-23.679875"
       inkscape:label="Bm" />
    <path
       id="Cell_Em"
       style="display:inline;fill:#e3bf2d;fill-opacity:1;stroke:#000000;stroke-width:1.5;stroke-linecap:butt;stroke-linejoin:miter;stroke-dasharray:none"
       d="m 130.6232,123.19032 12.54712,-12.72883 c -6.71276,-6.65783 -14.9867,-11.45797 -24.09886,-13.94709 l -4.69119,17.33043 c 6.17741,1.65522 11.81546,4.88805 16.24291,9.34552 z"
       sodipodi:nodetypes="ccccc"
       inkscape:transform-center-x="-23.712512"
       inkscape:transform-center-y="-38.765775"
       inkscape:label="Em" />
    <path
       id="Cell_Am"
       style="display:inline;fill:#e3bf2d;fill-opacity:1;stroke:#000000;stroke-width:1.5;stroke-linecap:butt;stroke-linejoin:miter;stroke-dasharray:none"
       d="m 114.51855,113.87268 4.50172,-17.297048 c -9.14235,-2.409456 -18.70786,-2.42954 -27.843777,-0.02912 l 4.602521,17.354188 c 6.177416,-1.65524 12.676516,-1.67456 18.739536,-0.028 z"
       sodipodi:nodetypes="ccccc"
       inkscape:transform-center-x="-0.0018815"
       inkscape:transform-center-y="-44.34502"
       inkscape:label="Am" />
    <path
       id="Cell_Dm"
       style="display:inline;fill:#e3bf2d;fill-opacity:1;stroke:#000000;stroke-width:1.5;stroke-linecap:butt;stroke-linejoin:miter;stroke-dasharray:none"
       d="M 95.855537,113.82413 91.105628,96.593601 C 81.983405,99.078122 73.68938,103.84348 66.977676,110.49028 l 12.66299,12.7279 c 4.522182,-4.52218 10.140911,-7.78846 16.214909,-9.39402 z"
       sodipodi:nodetypes="ccccc"
       inkscape:transform-center-x="23.679874"
       inkscape:transform-center-y="-38.768131"
       inkscape:label="Dm" />
    <path
       id="Cell_GM"
       style="display:inline;fill:#78a0eb;fill-opacity:1;stroke:#000000;stroke-width:1.5;stroke-linecap:square;stroke-linejoin:miter;stroke-dasharray:none"
       d="m 123.7302,79.127732 -4.65876,17.386654 c 9.0797,2.43291 17.35362,7.233064 24.09888,13.947104 L 156.00564,97.762346 C 147.06829,88.825342 135.9373,82.398592 123.7302,79.127714 Z"
       sodipodi:nodetypes="ccccc"
       inkscape:transform-center-x="-32.443309"
       inkscape:transform-center-y="-53.879771"
       inkscape:label="G" />
    <path
       id="Cell_FM"
       style="display:inline;fill:#78a0eb;fill-opacity:1;stroke:#000000;stroke-width:1.5;stroke-linecap:square;stroke-linejoin:miter;stroke-dasharray:none"
       d="m 54.185749,97.761419 12.72791,12.727941 c 6.64682,-6.6468 14.94083,-11.412148 24.12799,-13.896708 l -4.58012,-17.465281 c -12.20836,3.271474 -23.33959,9.697805 -32.2758,18.634024 z"
       sodipodi:nodetypes="ccccc"
       inkscape:transform-center-x="32.483734"
       inkscape:transform-center-y="-53.864732"
       inkscape:label="F" />
    <path
       id="Cell_CM"
       style="display:inline;fill:#78a0eb;fill-opacity:1;stroke:#000000;stroke-width:2.5;stroke-linecap:square;stroke-linejoin:miter;stroke-dasharray:none"
       d="m 86.461529,79.127371 4.658743,17.386665 c 9.079688,-2.432896 18.645198,-2.412808 27.843778,0.02912 L 123.7302,79.127714 C 111.52172,75.85672 98.668628,75.856484 86.461529,79.127371 Z"
       sodipodi:nodetypes="ccccc"
       inkscape:transform-center-x="0.0006355"
       inkscape:transform-center-y="-62.065283"
       inkscape:label="C" />
  </g>
</svg>
